<mxfile host="app.diagrams.net" agent="Mozilla/5.0 (X11; Linux x86_64) AppleWebKit/537.36 (KHTML, like Gecko) Chrome/141.0.0.0 Safari/537.36" version="28.2.8">
  <diagram name="Page-1" id="tG6zjLgFV4YxIODaAFGd">
    <mxGraphModel dx="2220" dy="725" grid="1" gridSize="10" guides="1" tooltips="1" connect="1" arrows="1" fold="1" page="1" pageScale="1" pageWidth="850" pageHeight="1100" math="0" shadow="0">
      <root>
        <mxCell id="0" />
        <mxCell id="1" parent="0" />
        <mxCell id="IcPNtqgcJLwzDkZB0E8r-1" value="AWS Account" style="points=[[0,0],[0.25,0],[0.5,0],[0.75,0],[1,0],[1,0.25],[1,0.5],[1,0.75],[1,1],[0.75,1],[0.5,1],[0.25,1],[0,1],[0,0.75],[0,0.5],[0,0.25]];outlineConnect=0;gradientColor=none;html=1;whiteSpace=wrap;fontSize=12;fontStyle=0;container=1;pointerEvents=0;collapsible=0;recursiveResize=0;shape=mxgraph.aws4.group;grIcon=mxgraph.aws4.group_account;strokeColor=#CD2264;fillColor=none;verticalAlign=top;align=left;spacingLeft=30;fontColor=#CD2264;dashed=0;" parent="1" vertex="1">
          <mxGeometry x="20" y="20" width="940" height="580" as="geometry" />
        </mxCell>
        <mxCell id="wA4g9QgH_HcGF9cDhI8h-39" value="" style="endArrow=none;html=1;rounded=0;" parent="IcPNtqgcJLwzDkZB0E8r-1" target="wA4g9QgH_HcGF9cDhI8h-36" edge="1">
          <mxGeometry width="50" height="50" relative="1" as="geometry">
            <mxPoint x="340" y="224.5" as="sourcePoint" />
            <mxPoint x="340" y="244.5" as="targetPoint" />
          </mxGeometry>
        </mxCell>
        <mxCell id="wA4g9QgH_HcGF9cDhI8h-41" value="Assets" style="childLayout=tableLayout;recursiveResize=0;strokeColor=#98bf21;fillColor=#A7C942;shadow=1;" parent="IcPNtqgcJLwzDkZB0E8r-1" vertex="1">
          <mxGeometry x="-90" y="244.5" width="127" height="50" as="geometry" />
        </mxCell>
        <mxCell id="wA4g9QgH_HcGF9cDhI8h-42" style="shape=tableRow;horizontal=0;startSize=0;swimlaneHead=0;swimlaneBody=0;top=0;left=0;bottom=0;right=0;dropTarget=0;collapsible=0;recursiveResize=0;expand=0;fontStyle=0;strokeColor=inherit;fillColor=#ffffff;" parent="wA4g9QgH_HcGF9cDhI8h-41" vertex="1">
          <mxGeometry width="127" height="18" as="geometry" />
        </mxCell>
        <mxCell id="wA4g9QgH_HcGF9cDhI8h-43" value="CIDR" style="connectable=0;recursiveResize=0;strokeColor=inherit;fillColor=#A7C942;align=center;fontStyle=1;fontColor=#FFFFFF;html=1;" parent="wA4g9QgH_HcGF9cDhI8h-42" vertex="1">
          <mxGeometry width="63" height="18" as="geometry">
            <mxRectangle width="63" height="18" as="alternateBounds" />
          </mxGeometry>
        </mxCell>
        <mxCell id="wA4g9QgH_HcGF9cDhI8h-44" value="Next Hop" style="connectable=0;recursiveResize=0;strokeColor=inherit;fillColor=#A7C942;align=center;fontStyle=1;fontColor=#FFFFFF;html=1;" parent="wA4g9QgH_HcGF9cDhI8h-42" vertex="1">
          <mxGeometry x="63" width="64" height="18" as="geometry">
            <mxRectangle width="64" height="18" as="alternateBounds" />
          </mxGeometry>
        </mxCell>
        <mxCell id="wA4g9QgH_HcGF9cDhI8h-50" value="" style="shape=tableRow;horizontal=0;startSize=0;swimlaneHead=0;swimlaneBody=0;top=0;left=0;bottom=0;right=0;dropTarget=0;collapsible=0;recursiveResize=0;expand=0;fontStyle=1;strokeColor=inherit;fillColor=#EAF2D3;" parent="wA4g9QgH_HcGF9cDhI8h-41" vertex="1">
          <mxGeometry y="18" width="127" height="15" as="geometry" />
        </mxCell>
        <mxCell id="wA4g9QgH_HcGF9cDhI8h-51" value="10.0.0.0/16" style="connectable=0;recursiveResize=0;strokeColor=inherit;fillColor=inherit;whiteSpace=wrap;html=1;" parent="wA4g9QgH_HcGF9cDhI8h-50" vertex="1">
          <mxGeometry width="63" height="15" as="geometry">
            <mxRectangle width="63" height="15" as="alternateBounds" />
          </mxGeometry>
        </mxCell>
        <mxCell id="wA4g9QgH_HcGF9cDhI8h-52" value="local" style="connectable=0;recursiveResize=0;whiteSpace=wrap;html=1;fillColor=#d5e8d4;strokeColor=#82b366;shadow=0;" parent="wA4g9QgH_HcGF9cDhI8h-50" vertex="1">
          <mxGeometry x="63" width="64" height="15" as="geometry">
            <mxRectangle width="64" height="15" as="alternateBounds" />
          </mxGeometry>
        </mxCell>
        <mxCell id="wA4g9QgH_HcGF9cDhI8h-141" style="shape=tableRow;horizontal=0;startSize=0;swimlaneHead=0;swimlaneBody=0;top=0;left=0;bottom=0;right=0;dropTarget=0;collapsible=0;recursiveResize=0;expand=0;fontStyle=1;strokeColor=inherit;fillColor=#EAF2D3;" parent="wA4g9QgH_HcGF9cDhI8h-41" vertex="1">
          <mxGeometry y="33" width="127" height="17" as="geometry" />
        </mxCell>
        <mxCell id="wA4g9QgH_HcGF9cDhI8h-142" value="&lt;div&gt;&lt;span style=&quot;background-color: transparent; color: light-dark(rgb(0, 0, 0), rgb(255, 255, 255));&quot;&gt;0.0.0.0/0&lt;/span&gt;&lt;/div&gt;" style="connectable=0;recursiveResize=0;strokeColor=inherit;fillColor=inherit;whiteSpace=wrap;html=1;" parent="wA4g9QgH_HcGF9cDhI8h-141" vertex="1">
          <mxGeometry width="63" height="17" as="geometry">
            <mxRectangle width="63" height="17" as="alternateBounds" />
          </mxGeometry>
        </mxCell>
        <mxCell id="wA4g9QgH_HcGF9cDhI8h-143" value="IGW" style="connectable=0;recursiveResize=0;whiteSpace=wrap;html=1;fillColor=#d5e8d4;strokeColor=#82b366;shadow=0;" parent="wA4g9QgH_HcGF9cDhI8h-141" vertex="1">
          <mxGeometry x="63" width="64" height="17" as="geometry">
            <mxRectangle width="64" height="17" as="alternateBounds" />
          </mxGeometry>
        </mxCell>
        <mxCell id="wA4g9QgH_HcGF9cDhI8h-166" value="Assets" style="childLayout=tableLayout;recursiveResize=0;strokeColor=#98bf21;fillColor=#A7C942;shadow=1;" parent="IcPNtqgcJLwzDkZB0E8r-1" vertex="1">
          <mxGeometry x="-80" y="444.5" width="137" height="30" as="geometry" />
        </mxCell>
        <mxCell id="wA4g9QgH_HcGF9cDhI8h-167" style="shape=tableRow;horizontal=0;startSize=0;swimlaneHead=0;swimlaneBody=0;top=0;left=0;bottom=0;right=0;dropTarget=0;collapsible=0;recursiveResize=0;expand=0;fontStyle=0;strokeColor=inherit;fillColor=#ffffff;" parent="wA4g9QgH_HcGF9cDhI8h-166" vertex="1">
          <mxGeometry width="137" height="15" as="geometry" />
        </mxCell>
        <mxCell id="wA4g9QgH_HcGF9cDhI8h-168" value="CIDR" style="connectable=0;recursiveResize=0;strokeColor=inherit;fillColor=#A7C942;align=center;fontStyle=1;fontColor=#FFFFFF;html=1;" parent="wA4g9QgH_HcGF9cDhI8h-167" vertex="1">
          <mxGeometry width="68" height="15" as="geometry">
            <mxRectangle width="68" height="15" as="alternateBounds" />
          </mxGeometry>
        </mxCell>
        <mxCell id="wA4g9QgH_HcGF9cDhI8h-169" value="Next Hop" style="connectable=0;recursiveResize=0;strokeColor=inherit;fillColor=#A7C942;align=center;fontStyle=1;fontColor=#FFFFFF;html=1;" parent="wA4g9QgH_HcGF9cDhI8h-167" vertex="1">
          <mxGeometry x="68" width="69" height="15" as="geometry">
            <mxRectangle width="69" height="15" as="alternateBounds" />
          </mxGeometry>
        </mxCell>
        <mxCell id="wA4g9QgH_HcGF9cDhI8h-170" style="shape=tableRow;horizontal=0;startSize=0;swimlaneHead=0;swimlaneBody=0;top=0;left=0;bottom=0;right=0;dropTarget=0;collapsible=0;recursiveResize=0;expand=0;fontStyle=1;strokeColor=inherit;fillColor=#EAF2D3;" parent="wA4g9QgH_HcGF9cDhI8h-166" vertex="1">
          <mxGeometry y="15" width="137" height="15" as="geometry" />
        </mxCell>
        <mxCell id="wA4g9QgH_HcGF9cDhI8h-171" value="10.0.0.0/16" style="connectable=0;recursiveResize=0;strokeColor=inherit;fillColor=inherit;whiteSpace=wrap;html=1;" parent="wA4g9QgH_HcGF9cDhI8h-170" vertex="1">
          <mxGeometry width="68" height="15" as="geometry">
            <mxRectangle width="68" height="15" as="alternateBounds" />
          </mxGeometry>
        </mxCell>
        <mxCell id="wA4g9QgH_HcGF9cDhI8h-172" value="local" style="connectable=0;recursiveResize=0;whiteSpace=wrap;html=1;fillColor=#d5e8d4;strokeColor=#82b366;shadow=0;" parent="wA4g9QgH_HcGF9cDhI8h-170" vertex="1">
          <mxGeometry x="68" width="69" height="15" as="geometry">
            <mxRectangle width="69" height="15" as="alternateBounds" />
          </mxGeometry>
        </mxCell>
        <mxCell id="wA4g9QgH_HcGF9cDhI8h-173" value="" style="endArrow=none;html=1;rounded=0;exitX=1;exitY=0.75;exitDx=0;exitDy=0;" parent="IcPNtqgcJLwzDkZB0E8r-1" source="wA4g9QgH_HcGF9cDhI8h-167" target="wA4g9QgH_HcGF9cDhI8h-177" edge="1">
          <mxGeometry width="50" height="50" relative="1" as="geometry">
            <mxPoint x="480" y="414.5" as="sourcePoint" />
            <mxPoint x="530" y="364.5" as="targetPoint" />
          </mxGeometry>
        </mxCell>
        <mxCell id="wA4g9QgH_HcGF9cDhI8h-174" value="" style="endArrow=none;html=1;rounded=0;exitX=1;exitY=0.25;exitDx=0;exitDy=0;" parent="IcPNtqgcJLwzDkZB0E8r-1" source="wA4g9QgH_HcGF9cDhI8h-42" target="wA4g9QgH_HcGF9cDhI8h-34" edge="1">
          <mxGeometry width="50" height="50" relative="1" as="geometry">
            <mxPoint x="480" y="414.5" as="sourcePoint" />
            <mxPoint x="530" y="364.5" as="targetPoint" />
          </mxGeometry>
        </mxCell>
        <mxCell id="wA4g9QgH_HcGF9cDhI8h-11" value="AWS Cloud" style="points=[[0,0],[0.25,0],[0.5,0],[0.75,0],[1,0],[1,0.25],[1,0.5],[1,0.75],[1,1],[0.75,1],[0.5,1],[0.25,1],[0,1],[0,0.75],[0,0.5],[0,0.25]];outlineConnect=0;gradientColor=none;html=1;whiteSpace=wrap;fontSize=12;fontStyle=0;container=1;pointerEvents=0;collapsible=0;recursiveResize=0;shape=mxgraph.aws4.group;grIcon=mxgraph.aws4.group_aws_cloud_alt;strokeColor=#232F3E;fillColor=none;verticalAlign=top;align=left;spacingLeft=30;fontColor=#232F3E;dashed=0;" parent="IcPNtqgcJLwzDkZB0E8r-1" vertex="1">
          <mxGeometry x="50" y="40" width="870" height="520" as="geometry" />
        </mxCell>
        <mxCell id="wA4g9QgH_HcGF9cDhI8h-14" value="&lt;font style=&quot;font-size: 13px;&quot;&gt;&lt;b&gt;VPC - test_vpc - 10.0.0.0/16&lt;/b&gt;&lt;/font&gt;" style="sketch=0;outlineConnect=0;gradientColor=none;html=1;whiteSpace=wrap;fontSize=12;fontStyle=0;shape=mxgraph.aws4.group;grIcon=mxgraph.aws4.group_vpc;strokeColor=#879196;fillColor=none;verticalAlign=top;align=left;spacingLeft=30;fontColor=#879196;dashed=0;" parent="wA4g9QgH_HcGF9cDhI8h-11" vertex="1">
          <mxGeometry x="40" y="40" width="600" height="460" as="geometry" />
        </mxCell>
        <mxCell id="wA4g9QgH_HcGF9cDhI8h-15" value="Availability Zone 1" style="sketch=0;outlineConnect=0;gradientColor=none;html=1;whiteSpace=wrap;fontSize=12;fontStyle=0;shape=mxgraph.aws4.group;grIcon=mxgraph.aws4.group_availability_zone;strokeColor=#545B64;fillColor=none;verticalAlign=top;align=left;spacingLeft=30;fontColor=#545B64;dashed=1;" parent="wA4g9QgH_HcGF9cDhI8h-11" vertex="1">
          <mxGeometry x="60" y="80" width="560" height="360" as="geometry" />
        </mxCell>
        <mxCell id="wA4g9QgH_HcGF9cDhI8h-21" value="Public subnet mali-pub-1&lt;div&gt;&lt;span style=&quot;color: rgb(206, 145, 120); font-family: &amp;quot;Droid Sans Mono&amp;quot;, &amp;quot;monospace&amp;quot;, monospace; font-size: 14px; white-space: pre;&quot;&gt;10.0.1.0/24&lt;/span&gt;&lt;/div&gt;" style="points=[[0,0],[0.25,0],[0.5,0],[0.75,0],[1,0],[1,0.25],[1,0.5],[1,0.75],[1,1],[0.75,1],[0.5,1],[0.25,1],[0,1],[0,0.75],[0,0.5],[0,0.25]];outlineConnect=0;gradientColor=none;html=1;whiteSpace=wrap;fontSize=12;fontStyle=0;container=1;pointerEvents=0;collapsible=0;recursiveResize=0;shape=mxgraph.aws4.group;grIcon=mxgraph.aws4.group_security_group;grStroke=0;strokeColor=#00A4A6;fillColor=#E6F6F7;verticalAlign=top;align=left;spacingLeft=30;fontColor=#147EBA;dashed=0;" parent="wA4g9QgH_HcGF9cDhI8h-11" vertex="1">
          <mxGeometry x="90" y="120" width="190" height="120" as="geometry" />
        </mxCell>
        <mxCell id="wA4g9QgH_HcGF9cDhI8h-24" value="Private subnet mali-pub-2&lt;div&gt;&lt;span style=&quot;color: rgb(206, 145, 120); font-family: &amp;quot;Droid Sans Mono&amp;quot;, &amp;quot;monospace&amp;quot;, monospace; font-size: 14px; white-space: pre;&quot;&gt;10.0.20.0/24&lt;/span&gt;&lt;/div&gt;" style="points=[[0,0],[0.25,0],[0.5,0],[0.75,0],[1,0],[1,0.25],[1,0.5],[1,0.75],[1,1],[0.75,1],[0.5,1],[0.25,1],[0,1],[0,0.75],[0,0.5],[0,0.25]];outlineConnect=0;gradientColor=none;html=1;whiteSpace=wrap;fontSize=12;fontStyle=0;container=1;pointerEvents=0;collapsible=0;recursiveResize=0;shape=mxgraph.aws4.group;grIcon=mxgraph.aws4.group_security_group;grStroke=0;strokeColor=#00A4A6;fillColor=#E6F6F7;verticalAlign=top;align=left;spacingLeft=30;fontColor=#147EBA;dashed=0;" parent="wA4g9QgH_HcGF9cDhI8h-11" vertex="1">
          <mxGeometry x="381" y="300" width="200" height="120" as="geometry" />
        </mxCell>
        <mxCell id="wA4g9QgH_HcGF9cDhI8h-27" value="Public subnet mali-pub-2&lt;div&gt;&lt;span style=&quot;color: rgb(206, 145, 120); font-family: &amp;quot;Droid Sans Mono&amp;quot;, &amp;quot;monospace&amp;quot;, monospace; font-size: 14px; white-space: pre;&quot;&gt;10.0.2.0/24&lt;/span&gt;&lt;/div&gt;" style="points=[[0,0],[0.25,0],[0.5,0],[0.75,0],[1,0],[1,0.25],[1,0.5],[1,0.75],[1,1],[0.75,1],[0.5,1],[0.25,1],[0,1],[0,0.75],[0,0.5],[0,0.25]];outlineConnect=0;gradientColor=none;html=1;whiteSpace=wrap;fontSize=12;fontStyle=0;container=1;pointerEvents=0;collapsible=0;recursiveResize=0;shape=mxgraph.aws4.group;grIcon=mxgraph.aws4.group_security_group;grStroke=0;strokeColor=#00A4A6;fillColor=#E6F6F7;verticalAlign=top;align=left;spacingLeft=30;fontColor=#147EBA;dashed=0;" parent="wA4g9QgH_HcGF9cDhI8h-11" vertex="1">
          <mxGeometry x="380" y="120" width="200" height="120" as="geometry" />
        </mxCell>
        <mxCell id="wA4g9QgH_HcGF9cDhI8h-28" value="Private subnet mali-pub-2&lt;div&gt;&lt;div style=&quot;color: rgb(204, 204, 204); font-family: &amp;quot;Droid Sans Mono&amp;quot;, &amp;quot;monospace&amp;quot;, monospace; font-size: 14px; line-height: 19px; white-space: pre;&quot;&gt;&lt;span style=&quot;color: rgb(206, 145, 120);&quot;&gt;10.0.10.0/24&lt;/span&gt;&lt;/div&gt;&lt;/div&gt;" style="points=[[0,0],[0.25,0],[0.5,0],[0.75,0],[1,0],[1,0.25],[1,0.5],[1,0.75],[1,1],[0.75,1],[0.5,1],[0.25,1],[0,1],[0,0.75],[0,0.5],[0,0.25]];outlineConnect=0;gradientColor=none;html=1;whiteSpace=wrap;fontSize=12;fontStyle=0;container=1;pointerEvents=0;collapsible=0;recursiveResize=0;shape=mxgraph.aws4.group;grIcon=mxgraph.aws4.group_security_group;grStroke=0;strokeColor=#00A4A6;fillColor=#E6F6F7;verticalAlign=top;align=left;spacingLeft=30;fontColor=#147EBA;dashed=0;" parent="wA4g9QgH_HcGF9cDhI8h-11" vertex="1">
          <mxGeometry x="90" y="310" width="190" height="120" as="geometry" />
        </mxCell>
        <mxCell id="wA4g9QgH_HcGF9cDhI8h-32" value="&lt;b style=&quot;font-size: 13px; text-align: left; text-wrap-mode: wrap;&quot;&gt;10.0.0.0/16&lt;/b&gt;" style="text;html=1;align=center;verticalAlign=middle;resizable=0;points=[];autosize=1;strokeColor=none;fillColor=none;fontColor=light-dark(#030303, #ededed);" parent="wA4g9QgH_HcGF9cDhI8h-11" vertex="1">
          <mxGeometry x="530" y="470" width="90" height="30" as="geometry" />
        </mxCell>
        <mxCell id="wA4g9QgH_HcGF9cDhI8h-34" value="" style="sketch=0;outlineConnect=0;fontColor=#232F3E;gradientColor=none;fillColor=#8C4FFF;strokeColor=none;dashed=0;verticalLabelPosition=bottom;verticalAlign=top;align=center;html=1;fontSize=12;fontStyle=0;aspect=fixed;pointerEvents=1;shape=mxgraph.aws4.route_table;" parent="wA4g9QgH_HcGF9cDhI8h-11" vertex="1">
          <mxGeometry x="40" y="190.26" width="51.06" height="49.74" as="geometry" />
        </mxCell>
        <mxCell id="wA4g9QgH_HcGF9cDhI8h-36" value="" style="sketch=0;outlineConnect=0;fontColor=#232F3E;gradientColor=none;fillColor=#8C4FFF;strokeColor=none;dashed=0;verticalLabelPosition=bottom;verticalAlign=top;align=center;html=1;fontSize=12;fontStyle=0;aspect=fixed;pointerEvents=1;shape=mxgraph.aws4.internet_gateway;" parent="wA4g9QgH_HcGF9cDhI8h-11" vertex="1">
          <mxGeometry x="332" y="10" width="48" height="48" as="geometry" />
        </mxCell>
        <mxCell id="wA4g9QgH_HcGF9cDhI8h-38" value="IGW" style="text;html=1;align=center;verticalAlign=middle;resizable=0;points=[];autosize=1;strokeColor=none;fillColor=none;" parent="wA4g9QgH_HcGF9cDhI8h-11" vertex="1">
          <mxGeometry x="331" y="50" width="50" height="30" as="geometry" />
        </mxCell>
        <mxCell id="wA4g9QgH_HcGF9cDhI8h-40" value="" style="endArrow=none;html=1;rounded=0;" parent="wA4g9QgH_HcGF9cDhI8h-11" source="wA4g9QgH_HcGF9cDhI8h-27" target="wA4g9QgH_HcGF9cDhI8h-36" edge="1">
          <mxGeometry width="50" height="50" relative="1" as="geometry">
            <mxPoint x="230" y="200" as="sourcePoint" />
            <mxPoint x="280" y="150" as="targetPoint" />
          </mxGeometry>
        </mxCell>
        <mxCell id="wA4g9QgH_HcGF9cDhI8h-175" value="" style="sketch=0;outlineConnect=0;fontColor=#232F3E;gradientColor=none;fillColor=#8C4FFF;strokeColor=none;dashed=0;verticalLabelPosition=bottom;verticalAlign=top;align=center;html=1;fontSize=12;fontStyle=0;aspect=fixed;pointerEvents=1;shape=mxgraph.aws4.route_table;" parent="wA4g9QgH_HcGF9cDhI8h-11" vertex="1">
          <mxGeometry x="580" y="190.26" width="51.06" height="49.74" as="geometry" />
        </mxCell>
        <mxCell id="wA4g9QgH_HcGF9cDhI8h-176" value="" style="sketch=0;outlineConnect=0;fontColor=#232F3E;gradientColor=none;fillColor=#8C4FFF;strokeColor=none;dashed=0;verticalLabelPosition=bottom;verticalAlign=top;align=center;html=1;fontSize=12;fontStyle=0;aspect=fixed;pointerEvents=1;shape=mxgraph.aws4.route_table;" parent="wA4g9QgH_HcGF9cDhI8h-11" vertex="1">
          <mxGeometry x="580" y="350.26" width="51.06" height="49.74" as="geometry" />
        </mxCell>
        <mxCell id="wA4g9QgH_HcGF9cDhI8h-177" value="" style="sketch=0;outlineConnect=0;fontColor=#232F3E;gradientColor=none;fillColor=#8C4FFF;strokeColor=none;dashed=0;verticalLabelPosition=bottom;verticalAlign=top;align=center;html=1;fontSize=12;fontStyle=0;aspect=fixed;pointerEvents=1;shape=mxgraph.aws4.route_table;" parent="wA4g9QgH_HcGF9cDhI8h-11" vertex="1">
          <mxGeometry x="38.94" y="350" width="51.06" height="49.74" as="geometry" />
        </mxCell>
        <mxCell id="xFaLJH1q4Y-YCxGl3IpB-2" value="Amazon Linux-name_of_instance" style="sketch=0;outlineConnect=0;fontColor=#232F3E;gradientColor=none;strokeColor=#ffffff;fillColor=#232F3E;dashed=0;verticalLabelPosition=middle;verticalAlign=bottom;align=center;html=1;whiteSpace=wrap;fontSize=10;fontStyle=1;spacing=3;shape=mxgraph.aws4.productIcon;prIcon=mxgraph.aws4.ec2;" parent="wA4g9QgH_HcGF9cDhI8h-11" vertex="1">
          <mxGeometry x="110" y="160" width="60" height="90" as="geometry" />
        </mxCell>
        <mxCell id="wA4g9QgH_HcGF9cDhI8h-144" value="Assets" style="childLayout=tableLayout;recursiveResize=0;strokeColor=#98bf21;fillColor=#A7C942;shadow=1;" parent="wA4g9QgH_HcGF9cDhI8h-11" vertex="1">
          <mxGeometry x="670" y="200" width="140" height="40" as="geometry" />
        </mxCell>
        <mxCell id="wA4g9QgH_HcGF9cDhI8h-145" style="shape=tableRow;horizontal=0;startSize=0;swimlaneHead=0;swimlaneBody=0;top=0;left=0;bottom=0;right=0;dropTarget=0;collapsible=0;recursiveResize=0;expand=0;fontStyle=0;strokeColor=inherit;fillColor=#ffffff;" parent="wA4g9QgH_HcGF9cDhI8h-144" vertex="1">
          <mxGeometry width="140" height="14" as="geometry" />
        </mxCell>
        <mxCell id="wA4g9QgH_HcGF9cDhI8h-146" value="CIDR" style="connectable=0;recursiveResize=0;strokeColor=inherit;fillColor=#A7C942;align=center;fontStyle=1;fontColor=#FFFFFF;html=1;" parent="wA4g9QgH_HcGF9cDhI8h-145" vertex="1">
          <mxGeometry width="70" height="14" as="geometry">
            <mxRectangle width="70" height="14" as="alternateBounds" />
          </mxGeometry>
        </mxCell>
        <mxCell id="wA4g9QgH_HcGF9cDhI8h-147" value="Next Hop" style="connectable=0;recursiveResize=0;strokeColor=inherit;fillColor=#A7C942;align=center;fontStyle=1;fontColor=#FFFFFF;html=1;" parent="wA4g9QgH_HcGF9cDhI8h-145" vertex="1">
          <mxGeometry x="70" width="70" height="14" as="geometry">
            <mxRectangle width="70" height="14" as="alternateBounds" />
          </mxGeometry>
        </mxCell>
        <mxCell id="wA4g9QgH_HcGF9cDhI8h-148" value="" style="shape=tableRow;horizontal=0;startSize=0;swimlaneHead=0;swimlaneBody=0;top=0;left=0;bottom=0;right=0;dropTarget=0;collapsible=0;recursiveResize=0;expand=0;fontStyle=1;strokeColor=inherit;fillColor=#EAF2D3;" parent="wA4g9QgH_HcGF9cDhI8h-144" vertex="1">
          <mxGeometry y="14" width="140" height="14" as="geometry" />
        </mxCell>
        <mxCell id="wA4g9QgH_HcGF9cDhI8h-149" value="10.0.0.0/16" style="connectable=0;recursiveResize=0;strokeColor=inherit;fillColor=inherit;whiteSpace=wrap;html=1;" parent="wA4g9QgH_HcGF9cDhI8h-148" vertex="1">
          <mxGeometry width="70" height="14" as="geometry">
            <mxRectangle width="70" height="14" as="alternateBounds" />
          </mxGeometry>
        </mxCell>
        <mxCell id="wA4g9QgH_HcGF9cDhI8h-150" value="local" style="connectable=0;recursiveResize=0;whiteSpace=wrap;html=1;fillColor=#d5e8d4;strokeColor=#82b366;shadow=0;" parent="wA4g9QgH_HcGF9cDhI8h-148" vertex="1">
          <mxGeometry x="70" width="70" height="14" as="geometry">
            <mxRectangle width="70" height="14" as="alternateBounds" />
          </mxGeometry>
        </mxCell>
        <mxCell id="wA4g9QgH_HcGF9cDhI8h-151" style="shape=tableRow;horizontal=0;startSize=0;swimlaneHead=0;swimlaneBody=0;top=0;left=0;bottom=0;right=0;dropTarget=0;collapsible=0;recursiveResize=0;expand=0;fontStyle=1;strokeColor=inherit;fillColor=#EAF2D3;" parent="wA4g9QgH_HcGF9cDhI8h-144" vertex="1">
          <mxGeometry y="28" width="140" height="12" as="geometry" />
        </mxCell>
        <mxCell id="wA4g9QgH_HcGF9cDhI8h-152" value="&lt;div&gt;&lt;span style=&quot;background-color: transparent; color: light-dark(rgb(0, 0, 0), rgb(255, 255, 255));&quot;&gt;0.0.0.0/0&lt;/span&gt;&lt;/div&gt;" style="connectable=0;recursiveResize=0;strokeColor=inherit;fillColor=inherit;whiteSpace=wrap;html=1;" parent="wA4g9QgH_HcGF9cDhI8h-151" vertex="1">
          <mxGeometry width="70" height="12" as="geometry">
            <mxRectangle width="70" height="12" as="alternateBounds" />
          </mxGeometry>
        </mxCell>
        <mxCell id="wA4g9QgH_HcGF9cDhI8h-153" value="IGW" style="connectable=0;recursiveResize=0;whiteSpace=wrap;html=1;fillColor=#d5e8d4;strokeColor=#82b366;shadow=0;" parent="wA4g9QgH_HcGF9cDhI8h-151" vertex="1">
          <mxGeometry x="70" width="70" height="12" as="geometry">
            <mxRectangle width="70" height="12" as="alternateBounds" />
          </mxGeometry>
        </mxCell>
        <mxCell id="wA4g9QgH_HcGF9cDhI8h-154" value="" style="endArrow=none;html=1;rounded=0;entryX=0;entryY=0.75;entryDx=0;entryDy=0;" parent="wA4g9QgH_HcGF9cDhI8h-11" source="wA4g9QgH_HcGF9cDhI8h-175" target="wA4g9QgH_HcGF9cDhI8h-145" edge="1">
          <mxGeometry width="50" height="50" relative="1" as="geometry">
            <mxPoint x="430" y="374.5" as="sourcePoint" />
            <mxPoint x="480" y="324.5" as="targetPoint" />
          </mxGeometry>
        </mxCell>
        <mxCell id="wA4g9QgH_HcGF9cDhI8h-155" value="Assets" style="childLayout=tableLayout;recursiveResize=0;strokeColor=#98bf21;fillColor=#A7C942;shadow=1;" parent="wA4g9QgH_HcGF9cDhI8h-11" vertex="1">
          <mxGeometry x="650" y="369.74" width="170" height="50.26" as="geometry" />
        </mxCell>
        <mxCell id="wA4g9QgH_HcGF9cDhI8h-156" style="shape=tableRow;horizontal=0;startSize=0;swimlaneHead=0;swimlaneBody=0;top=0;left=0;bottom=0;right=0;dropTarget=0;collapsible=0;recursiveResize=0;expand=0;fontStyle=0;strokeColor=inherit;fillColor=#ffffff;" parent="wA4g9QgH_HcGF9cDhI8h-155" vertex="1">
          <mxGeometry width="170" height="19" as="geometry" />
        </mxCell>
        <mxCell id="wA4g9QgH_HcGF9cDhI8h-157" value="CIDR" style="connectable=0;recursiveResize=0;strokeColor=inherit;fillColor=#A7C942;align=center;fontStyle=1;fontColor=#FFFFFF;html=1;" parent="wA4g9QgH_HcGF9cDhI8h-156" vertex="1">
          <mxGeometry width="85" height="19" as="geometry">
            <mxRectangle width="85" height="19" as="alternateBounds" />
          </mxGeometry>
        </mxCell>
        <mxCell id="wA4g9QgH_HcGF9cDhI8h-158" value="Next Hop" style="connectable=0;recursiveResize=0;strokeColor=inherit;fillColor=#A7C942;align=center;fontStyle=1;fontColor=#FFFFFF;html=1;" parent="wA4g9QgH_HcGF9cDhI8h-156" vertex="1">
          <mxGeometry x="85" width="85" height="19" as="geometry">
            <mxRectangle width="85" height="19" as="alternateBounds" />
          </mxGeometry>
        </mxCell>
        <mxCell id="wA4g9QgH_HcGF9cDhI8h-162" style="shape=tableRow;horizontal=0;startSize=0;swimlaneHead=0;swimlaneBody=0;top=0;left=0;bottom=0;right=0;dropTarget=0;collapsible=0;recursiveResize=0;expand=0;fontStyle=1;strokeColor=inherit;fillColor=#EAF2D3;" parent="wA4g9QgH_HcGF9cDhI8h-155" vertex="1">
          <mxGeometry y="19" width="170" height="16" as="geometry" />
        </mxCell>
        <mxCell id="wA4g9QgH_HcGF9cDhI8h-163" value="10.0.0.0/16" style="connectable=0;recursiveResize=0;strokeColor=inherit;fillColor=inherit;whiteSpace=wrap;html=1;" parent="wA4g9QgH_HcGF9cDhI8h-162" vertex="1">
          <mxGeometry width="85" height="16" as="geometry">
            <mxRectangle width="85" height="16" as="alternateBounds" />
          </mxGeometry>
        </mxCell>
        <mxCell id="wA4g9QgH_HcGF9cDhI8h-164" value="local" style="connectable=0;recursiveResize=0;whiteSpace=wrap;html=1;fillColor=#d5e8d4;strokeColor=#82b366;shadow=0;" parent="wA4g9QgH_HcGF9cDhI8h-162" vertex="1">
          <mxGeometry x="85" width="85" height="16" as="geometry">
            <mxRectangle width="85" height="16" as="alternateBounds" />
          </mxGeometry>
        </mxCell>
        <mxCell id="xlXAPkZyChCqHCoMfdRR-7" style="shape=tableRow;horizontal=0;startSize=0;swimlaneHead=0;swimlaneBody=0;top=0;left=0;bottom=0;right=0;dropTarget=0;collapsible=0;recursiveResize=0;expand=0;fontStyle=1;strokeColor=inherit;fillColor=#EAF2D3;" vertex="1" parent="wA4g9QgH_HcGF9cDhI8h-155">
          <mxGeometry y="35" width="170" height="15" as="geometry" />
        </mxCell>
        <mxCell id="xlXAPkZyChCqHCoMfdRR-8" value="0.0.0.0/0" style="connectable=0;recursiveResize=0;strokeColor=inherit;fillColor=inherit;whiteSpace=wrap;html=1;" vertex="1" parent="xlXAPkZyChCqHCoMfdRR-7">
          <mxGeometry width="85" height="15" as="geometry">
            <mxRectangle width="85" height="15" as="alternateBounds" />
          </mxGeometry>
        </mxCell>
        <mxCell id="xlXAPkZyChCqHCoMfdRR-9" value="NAT Gateway" style="connectable=0;recursiveResize=0;whiteSpace=wrap;html=1;fillColor=#d5e8d4;strokeColor=#82b366;shadow=0;" vertex="1" parent="xlXAPkZyChCqHCoMfdRR-7">
          <mxGeometry x="85" width="85" height="15" as="geometry">
            <mxRectangle width="85" height="15" as="alternateBounds" />
          </mxGeometry>
        </mxCell>
        <mxCell id="wA4g9QgH_HcGF9cDhI8h-165" value="" style="endArrow=none;html=1;rounded=0;" parent="wA4g9QgH_HcGF9cDhI8h-11" source="wA4g9QgH_HcGF9cDhI8h-176" target="wA4g9QgH_HcGF9cDhI8h-156" edge="1">
          <mxGeometry width="50" height="50" relative="1" as="geometry">
            <mxPoint x="440" y="374.5" as="sourcePoint" />
            <mxPoint x="480" y="324.5" as="targetPoint" />
          </mxGeometry>
        </mxCell>
        <mxCell id="xlXAPkZyChCqHCoMfdRR-5" value="" style="outlineConnect=0;dashed=0;verticalLabelPosition=bottom;verticalAlign=top;align=center;html=1;shape=mxgraph.aws3.vpc_nat_gateway;fillColor=#F58534;gradientColor=none;" vertex="1" parent="wA4g9QgH_HcGF9cDhI8h-11">
          <mxGeometry x="405" y="170" width="60" height="60" as="geometry" />
        </mxCell>
        <mxCell id="xlXAPkZyChCqHCoMfdRR-6" value="" style="edgeStyle=orthogonalEdgeStyle;html=1;endArrow=none;elbow=vertical;startArrow=block;startFill=1;strokeColor=#545B64;rounded=0;" edge="1" parent="wA4g9QgH_HcGF9cDhI8h-11" source="xlXAPkZyChCqHCoMfdRR-5" target="wA4g9QgH_HcGF9cDhI8h-24">
          <mxGeometry width="100" relative="1" as="geometry">
            <mxPoint x="360" y="320" as="sourcePoint" />
            <mxPoint x="460" y="320" as="targetPoint" />
          </mxGeometry>
        </mxCell>
      </root>
    </mxGraphModel>
  </diagram>
</mxfile>
